HIERARCHY
ROOT Hips
{
	OFFSET 0.000000 0.000000 0.000000
	CHANNELS 6 Xposition Yposition Zposition Zrotation Yrotation Xrotation 
	JOINT LHipJoint
	{
		OFFSET 0.000000 0.000000 0.000000
		CHANNELS 3 Zrotation Yrotation Xrotation
		JOINT LeftUpLeg
		{
			OFFSET 1.363060 -1.794630 0.839290
			CHANNELS 3 Zrotation Yrotation Xrotation
			JOINT LeftLeg
			{
				OFFSET 2.448110 -6.726130 0.000000
				CHANNELS 3 Zrotation Yrotation Xrotation
				JOINT LeftFoot
				{
					OFFSET 2.562200 -7.039590 0.000000
					CHANNELS 3 Zrotation Yrotation Xrotation
					JOINT LeftToeBase
					{
						OFFSET 0.157640 -0.433110 2.322550
						CHANNELS 3 Zrotation Yrotation Xrotation
						End Site
						{
							OFFSET 0.000000 0.000000 0.000000
						}
					}
				}
			}
		}
	}
	JOINT RHipJoint
	{
		OFFSET 0.000000 0.000000 0.000000
		CHANNELS 3 Zrotation Yrotation Xrotation
		JOINT RightUpLeg
		{
			OFFSET -1.305520 -1.794630 0.839290
			CHANNELS 3 Zrotation Yrotation Xrotation
			JOINT RightLeg
			{
				OFFSET -2.542530 -6.985550 0.000000
				CHANNELS 3 Zrotation Yrotation Xrotation
				JOINT RightFoot
				{
					OFFSET -2.568260 -7.056230 0.000000
					CHANNELS 3 Zrotation Yrotation Xrotation
					JOINT RightToeBase
					{
						OFFSET -0.164730 -0.452590 2.363150
						CHANNELS 3 Zrotation Yrotation Xrotation
						End Site
						{
							OFFSET 0.000000 0.000000 0.000000
						}
					}
				}
			}
		}
	}
	JOINT LowerBack
	{
		OFFSET 0.000000 0.000000 0.000000
		CHANNELS 3 Zrotation Yrotation Xrotation
		JOINT Spine
		{
			OFFSET 0.028270 2.035590 -0.193380
			CHANNELS 3 Zrotation Yrotation Xrotation
			JOINT Spine1
			{
				OFFSET 0.056720 2.048850 -0.042750
				CHANNELS 3 Zrotation Yrotation Xrotation
				JOINT Neck
				{
					OFFSET 0.000000 0.000000 0.000000
					CHANNELS 3 Zrotation Yrotation Xrotation
					JOINT Neck1
					{
						OFFSET -0.054170 1.746240 0.172020
						CHANNELS 3 Zrotation Yrotation Xrotation
						JOINT Head
						{
							OFFSET 0.104070 1.761360 -0.123970
							CHANNELS 3 Zrotation Yrotation Xrotation
							End Site
							{
								OFFSET 0.000000 0.000000 0.000000
							}
						}
					}
				}
				JOINT LeftShoulder
				{
					OFFSET 0.000000 0.000000 0.000000
					CHANNELS 3 Zrotation Yrotation Xrotation
					JOINT LeftArm
					{
						OFFSET 3.362410 1.200890 -0.311210
						CHANNELS 3 Zrotation Yrotation Xrotation
						JOINT LeftForeArm
						{
							OFFSET 4.983000 -0.000000 -0.000000
							CHANNELS 3 Zrotation Yrotation Xrotation
							JOINT LeftHand
							{
								OFFSET 3.483560 -0.000000 -0.000000
								CHANNELS 3 Zrotation Yrotation Xrotation
								JOINT LeftFingerBase
								{
									OFFSET 0.000000 0.000000 0.000000
									CHANNELS 3 Zrotation Yrotation Xrotation
									JOINT LeftHandIndex1
									{
										OFFSET 0.715260 -0.000000 -0.000000
										CHANNELS 3 Zrotation Yrotation Xrotation
										End Site
										{
											OFFSET 0.000000 0.000000 0.000000
										}
									}
								}
								JOINT LThumb
								{
									OFFSET 0.000000 0.000000 0.000000
									CHANNELS 3 Zrotation Yrotation Xrotation
									End Site
									{
										OFFSET 0.000000 0.000000 0.000000
									}
								}
							}
						}
					}
				}
				JOINT RightShoulder
				{
					OFFSET 0.000000 0.000000 0.000000
					CHANNELS 3 Zrotation Yrotation Xrotation
					JOINT RightArm
					{
						OFFSET -3.136600 1.374050 -0.404650
						CHANNELS 3 Zrotation Yrotation Xrotation
						JOINT RightForeArm
						{
							OFFSET -5.241900 -0.000000 -0.000000
							CHANNELS 3 Zrotation Yrotation Xrotation
							JOINT RightHand
							{
								OFFSET -3.444170 -0.000000 -0.000000
								CHANNELS 3 Zrotation Yrotation Xrotation
								JOINT RightFingerBase
								{
									OFFSET 0.000000 0.000000 0.000000
									CHANNELS 3 Zrotation Yrotation Xrotation
									JOINT RightHandIndex1
									{
										OFFSET -0.622530 -0.000000 -0.000000
										CHANNELS 3 Zrotation Yrotation Xrotation
										End Site
										{
											OFFSET 0.000000 0.000000 0.000000
										}
									}
								}
								JOINT RThumb
								{
									OFFSET 0.000000 0.000000 0.000000
									CHANNELS 3 Zrotation Yrotation Xrotation
									End Site
									{
										OFFSET 0.000000 0.000000 0.000000
									}
								}
							}
						}
					}
				}
			}
		}
	}
}
MOTION
Frames: 6
Frame Time: 0.008333
-38.738080 17.465727 0.949432 176.959601 78.677181 -177.941597 1.820004 -0.078533 -1.355046 -16.134693 -5.251892 -15.713561 0.946776 11.000849 29.981124 0.249728 0.699349 -4.928629 0.439000 -4.251500 -11.785200 -3.198967 -0.065211 -1.365304 19.122077 3.238242 -12.989336 -1.940930 -11.889995 34.111567 2.250214 -16.595273 -22.381626 -0.093000 -1.966700 5.413700 -3.348399 1.548468 10.597810 0.233601 2.638333 -1.717077 2.761078 0.992193 5.955869 -11.509021 -12.130279 -2.223694 8.048937 -17.557034 1.129794 9.960000 -6.205500 -1.841200 -0.196072 1.483355 2.275694 -80.891757 7.820097 49.993447 100.817572 -60.070803 -66.379945 -1.393070 -0.235431 -30.493643 19.322954 21.740647 7.699400 -7.125000 0.000000 0.000000 -8.187100 52.133000 -1.445700 -3.359356 -0.728677 2.373093 83.194403 -2.529751 69.243069 -85.525423 60.812391 -53.385884 0.075553 -0.916640 -36.115296 -25.477585 25.589829 -11.786400 7.125000 0.000000 0.000000 2.971000 -1.118000 2.916400 
-38.740827 17.458476 0.940753 175.779583 78.434445 -179.061049 1.823516 -0.080570 -1.360630 -16.428288 -5.309738 -15.764510 0.920585 10.984914 29.897249 0.250197 0.666638 -4.781774 0.504300 -4.552200 -12.635600 -3.198324 -0.057989 -1.372396 18.846923 3.184443 -13.053821 -1.973860 -11.922223 34.243466 2.245078 -16.672154 -22.606271 -0.103100 -2.070200 5.699700 -3.683839 1.574393 10.774190 0.217467 2.660320 -1.703376 2.854686 0.996516 5.904171 -11.671672 -12.182195 -2.021558 8.217337 -17.718482 1.016866 10.115300 -6.249900 -1.886500 -0.224350 1.472761 2.292152 -80.628971 7.900912 50.932609 99.539392 -60.252796 -65.302287 -1.485706 -0.114303 -26.694723 21.939812 24.129654 9.669500 -7.125000 0.000000 0.000000 -6.241800 54.978000 -1.533900 -3.371132 -0.730991 2.397690 83.252410 -2.400148 69.174803 -84.633903 60.832880 -52.690328 0.032303 -0.931208 -35.668752 -25.358720 26.714612 -12.149900 7.125000 0.000000 0.000000 3.222500 0.032900 3.229400 
-38.746210 17.448039 0.931634 175.459461 78.183368 -179.380441 1.832442 -0.084005 -1.372386 -16.544176 -5.461864 -15.821438 0.935638 11.028484 30.003117 0.280389 0.494522 -4.710262 0.483500 -4.459100 -12.372000 -3.194431 -0.054232 -1.375107 18.766537 3.154522 -12.996731 -1.970136 -11.908030 34.225768 2.259668 -16.817380 -22.809841 -0.118600 -2.220200 6.114700 -3.818708 1.554597 11.038230 0.216041 2.634903 -1.689146 2.889534 0.979927 5.833375 -11.696900 -12.335240 -1.837000 8.355767 -17.981817 0.786716 10.195100 -6.325000 -1.997600 -0.220715 1.474148 2.313689 -80.576963 7.603585 50.481099 98.461999 -60.391736 -64.618389 -1.564114 -0.280285 -26.828354 21.412076 27.671735 10.830000 -7.125000 0.000000 0.000000 -8.179000 58.622000 -2.735900 -3.361641 -0.705468 2.423637 83.289321 -2.306161 69.113588 -83.840106 60.845810 -52.075602 -0.012558 -0.943673 -35.190244 -25.200729 27.827957 -12.474900 7.125000 0.000000 0.000000 3.499700 1.155200 3.576100 
-38.751044 17.446720 0.919220 175.774234 77.958912 -178.973475 1.837634 -0.103719 -1.392316 -16.523651 -5.510394 -16.002232 0.955543 11.073631 30.116181 0.310882 0.327756 -4.647314 0.508200 -4.569800 -12.685600 -3.194832 -0.052410 -1.379949 18.791542 2.969024 -13.112636 -1.961174 -11.897300 34.182346 2.285040 -16.907097 -22.815288 -0.106700 -2.106000 5.798700 -3.689779 1.573985 11.167788 0.195788 2.665778 -1.670026 2.651512 1.020879 5.865103 -11.562068 -12.490640 -1.737756 8.502344 -18.251055 0.615623 10.266700 -6.415900 -2.054400 -0.247279 1.497691 2.329611 -80.252122 7.277113 50.265221 97.395764 -60.531687 -64.094111 -1.625652 -0.444373 -26.645830 22.063058 32.574336 13.032600 -7.125000 0.000000 0.000000 -10.214200 63.809100 -4.681600 -3.377529 -0.702682 2.448281 83.654245 -2.087871 68.873661 -82.862623 60.851331 -51.230974 -0.018455 -0.942253 -34.609784 -24.789594 27.323394 -12.054900 7.125000 0.000000 0.000000 3.663300 0.532100 3.704700 
-38.755658 17.451115 0.906586 176.304723 77.842272 -178.359112 1.844923 -0.121204 -1.408611 -16.444347 -5.387258 -16.262924 0.988957 11.132582 30.278707 0.338988 0.169967 -4.558430 0.585700 -4.900100 -13.623900 -3.191559 -0.049721 -1.381227 18.861149 2.784130 -13.231522 -1.940777 -11.869754 34.077737 2.345995 -17.050321 -22.664555 -0.089100 -1.925300 5.299300 -3.578433 1.625712 11.329964 0.187661 2.739222 -1.661269 2.567811 1.072586 5.832171 -11.570761 -12.576203 -1.675843 8.555659 -18.411256 0.599464 10.307300 -6.489500 -2.016300 -0.263401 1.488377 2.335540 -80.040497 7.163268 50.060019 96.552915 -60.653517 -63.419703 -1.605803 -0.444455 -26.364420 21.900122 32.451661 12.892400 -7.125000 0.000000 0.000000 -10.359600 63.665700 -4.714200 -3.386711 -0.692062 2.453544 83.888523 -1.849729 68.850097 -81.785999 60.821008 -50.286350 -0.008615 -0.885386 -34.528596 -23.227585 25.399421 -10.511500 7.125000 0.000000 0.000000 4.301500 -1.869200 4.170800 
-38.758844 17.451884 0.895490 176.582172 77.953840 -178.249553 1.854952 -0.107481 -1.408530 -16.434345 -5.137230 -16.255437 1.036506 11.192419 30.485741 0.376294 -0.019923 -4.612192 0.575800 -4.859300 -13.507800 -3.186284 -0.057819 -1.382835 18.894907 2.650503 -13.119642 -1.931171 -11.832139 33.974229 2.473025 -17.318863 -22.265266 -0.068000 -1.682600 4.629200 -3.646213 1.757620 11.793698 0.185693 2.917533 -1.647691 2.690160 1.155387 5.679419 -11.678239 -12.616826 -1.599087 8.506229 -18.472198 0.656760 10.280600 -6.539700 -1.955500 -0.246384 1.444595 2.340294 -80.042916 7.097577 49.784983 95.625253 -60.757498 -62.636786 -1.597895 -0.421833 -25.956241 21.913123 32.190365 12.800000 -7.125000 0.000000 0.000000 -10.177400 63.405400 -4.568400 -3.366302 -0.650340 2.446418 83.898936 -1.699358 68.936803 -80.797235 60.756982 -49.447438 -0.024620 -0.781006 -34.550184 -20.681380 23.083884 -8.466900 7.125000 0.000000 0.000000 5.564200 -4.870200 5.096300 
